<svg xmlns="http://www.w3.org/2000/svg" width="1480" height="980" viewBox="0 0 1480 980">
  <style>
    .title { font: 700 28px Arial, sans-serif; fill: #111827; }
    .section { font: 700 18px Arial, sans-serif; fill: #111827; }
    .label { font: 600 15px Arial, sans-serif; fill: #111827; }
    .small { font: 500 13px Arial, sans-serif; fill: #374151; }
    .box { fill: #f8fafc; stroke: #1f2937; stroke-width: 2; rx: 14; }
    .blue { fill: #eff6ff; stroke: #2563eb; }
    .green { fill: #ecfdf5; stroke: #059669; }
    .orange { fill: #fff7ed; stroke: #ea580c; }
    .purple { fill: #faf5ff; stroke: #7c3aed; }
    .gray { fill: #f3f4f6; stroke: #4b5563; }
    .panel { fill: #ffffff; stroke: #cbd5e1; stroke-width: 2; rx: 18; }
    .arrow { stroke: #475569; stroke-width: 2.3; fill: none; marker-end: url(#arrow); }
  </style>
  <defs>
    <marker id="arrow" viewBox="0 0 10 10" refX="8" refY="5" markerWidth="8" markerHeight="8" orient="auto-start-reverse">
      <path d="M 0 0 L 10 5 L 0 10 z" fill="#475569"/>
    </marker>
  </defs>

  <text x="740" y="42" text-anchor="middle" class="title">Diagrama Arquitetural do Projeto</text>

  <rect x="40" y="70" width="1400" height="250" class="panel"/>
  <text x="65" y="102" class="section">1. Entrada e comandos operacionais</text>

  <rect x="80" y="140" width="260" height="72" class="box"/>
  <text x="210" y="172" text-anchor="middle" class="label">main.py</text>
  <text x="210" y="195" text-anchor="middle" class="small">entrada principal da aplicacao</text>

  <rect x="400" y="140" width="260" height="72" class="box blue"/>
  <text x="530" y="172" text-anchor="middle" class="label">school_predictor.cli</text>
  <text x="530" y="195" text-anchor="middle" class="small">roteia workflow, extract, pipeline, reports</text>

  <rect x="760" y="122" width="160" height="56" class="box gray"/>
  <text x="840" y="156" text-anchor="middle" class="label">workflow</text>

  <rect x="950" y="122" width="160" height="56" class="box gray"/>
  <text x="1030" y="156" text-anchor="middle" class="label">prepare-db</text>

  <rect x="1140" y="122" width="160" height="56" class="box gray"/>
  <text x="1220" y="156" text-anchor="middle" class="label">extract</text>

  <rect x="760" y="202" width="160" height="56" class="box gray"/>
  <text x="840" y="236" text-anchor="middle" class="label">pipeline</text>

  <rect x="950" y="202" width="160" height="56" class="box gray"/>
  <text x="1030" y="236" text-anchor="middle" class="label">reports</text>

  <rect x="1140" y="202" width="160" height="56" class="box gray"/>
  <text x="1220" y="236" text-anchor="middle" class="label">compare-history</text>

  <path d="M 340 176 L 400 176" class="arrow"/>
  <path d="M 660 176 L 760 150" class="arrow"/>
  <path d="M 660 176 L 950 150" class="arrow"/>
  <path d="M 660 176 L 1140 150" class="arrow"/>
  <path d="M 660 176 L 760 230" class="arrow"/>
  <path d="M 660 176 L 950 230" class="arrow"/>
  <path d="M 660 176 L 1140 230" class="arrow"/>

  <rect x="40" y="350" width="1400" height="250" class="panel"/>
  <text x="65" y="382" class="section">2. Camada de banco e extração</text>

  <rect x="90" y="430" width="300" height="78" class="box green"/>
  <text x="240" y="462" text-anchor="middle" class="label">school_predictor.database.maintenance</text>
  <text x="240" y="485" text-anchor="middle" class="small">prepara banco restaurado e anonimiza dados</text>

  <rect x="440" y="430" width="300" height="78" class="box green"/>
  <text x="590" y="462" text-anchor="middle" class="label">school_predictor.database.extraction</text>
  <text x="590" y="485" text-anchor="middle" class="small">executa consultas e gera CSVs base</text>

  <rect x="790" y="430" width="250" height="78" class="box"/>
  <text x="915" y="462" text-anchor="middle" class="label">private_runtime.py</text>
  <text x="915" y="485" text-anchor="middle" class="small">execucao local sensivel fora do fluxo publico</text>

  <rect x="1080" y="430" width="290" height="78" class="box"/>
  <text x="1225" y="462" text-anchor="middle" class="label">consultas SQL privadas locais</text>
  <text x="1225" y="485" text-anchor="middle" class="small">private_sql ou pasta equivalente</text>

  <rect x="540" y="540" width="360" height="78" class="box orange"/>
  <text x="720" y="572" text-anchor="middle" class="label">artifacts/database/csv</text>
  <text x="720" y="595" text-anchor="middle" class="small">media_nota_aluno, faltas, pagamentos, professores</text>

  <path d="M 240 508 L 240 548 L 540 548" class="arrow"/>
  <path d="M 590 508 L 590 540" class="arrow"/>
  <path d="M 915 508 L 915 548 L 900 548" class="arrow"/>
  <path d="M 1080 469 L 1040 469" class="arrow"/>
  <path d="M 790 469 L 740 469" class="arrow"/>

  <rect x="40" y="630" width="1400" height="300" class="panel"/>
  <text x="65" y="662" class="section">3. Pipeline analítica, artefatos e consumo</text>

  <rect x="90" y="710" width="290" height="78" class="box purple"/>
  <text x="235" y="742" text-anchor="middle" class="label">school_predictor.pipeline.orchestration</text>
  <text x="235" y="765" text-anchor="middle" class="small">run_real_pipeline e run_full_reporting_pipeline</text>

  <rect x="430" y="690" width="210" height="58" class="box"/>
  <text x="535" y="725" text-anchor="middle" class="label">previsao_nota</text>

  <rect x="430" y="770" width="210" height="58" class="box"/>
  <text x="535" y="805" text-anchor="middle" class="label">alerta_risco</text>

  <rect x="700" y="710" width="260" height="78" class="box purple"/>
  <text x="830" y="742" text-anchor="middle" class="label">school_predictor.pipeline.reporting</text>
  <text x="830" y="765" text-anchor="middle" class="small">consolida resultados em relatorios escolares</text>

  <rect x="1010" y="690" width="350" height="58" class="box orange"/>
  <text x="1185" y="725" text-anchor="middle" class="label">artifacts/pipeline</text>

  <rect x="1010" y="770" width="350" height="58" class="box orange"/>
  <text x="1185" y="805" text-anchor="middle" class="label">artifacts/reports</text>

  <rect x="1090" y="850" width="190" height="56" class="box blue"/>
  <text x="1185" y="884" text-anchor="middle" class="label">dashboard_streamlit.py</text>

  <path d="M 720 618 L 235 618 L 235 710" class="arrow"/>
  <path d="M 380 749 L 430 719" class="arrow"/>
  <path d="M 380 749 L 430 799" class="arrow"/>
  <path d="M 640 719 L 1010 719" class="arrow"/>
  <path d="M 640 799 L 1010 799" class="arrow"/>
  <path d="M 640 749 L 700 749" class="arrow"/>
  <path d="M 960 749 L 1010 799" class="arrow"/>
  <path d="M 1185 828 L 1185 850" class="arrow"/>
</svg>
