<svg xmlns="http://www.w3.org/2000/svg" width="1280" height="1100" viewBox="0 0 1280 1100">
  <style>
    .title { font: 700 28px Arial, sans-serif; fill: #ffffff; }
    .label { font: 600 15px Arial, sans-serif; fill: #111827; }
    .small { font: 500 13px Arial, sans-serif; fill: #374151; }
    .box { fill: #f8fafc; stroke: #1f2937; stroke-width: 2; rx: 14; }
    .decision { fill: #fff7ed; stroke: #c2410c; stroke-width: 2; }
    .data { fill: #eff6ff; stroke: #2563eb; stroke-width: 2; rx: 14; }
    .result { fill: #ecfdf5; stroke: #059669; stroke-width: 2; rx: 14; }
    .arrow { stroke: #475569; stroke-width: 2.2; fill: none; marker-end: url(#arrow); }
  </style>
  <defs>
    <marker id="arrow" viewBox="0 0 10 10" refX="8" refY="5" markerWidth="8" markerHeight="8" orient="auto-start-reverse">
      <path d="M 0 0 L 10 5 L 0 10 z" fill="#475569"/>
    </marker>
  </defs>
  <text x="640" y="38" text-anchor="middle" class="title">Fluxo da Pipeline</text>

  <rect x="500" y="70" width="280" height="60" class="box"/>
  <text x="640" y="107" text-anchor="middle" class="label">Início da execução</text>

  <rect x="470" y="170" width="340" height="72" class="box"/>
  <text x="640" y="202" text-anchor="middle" class="label">CLI: school_predictor</text>
  <text x="640" y="225" text-anchor="middle" class="small">workflow, prepare-db, extract, reports, clean</text>

  <polygon points="640,285 800,355 640,425 480,355" class="decision"/>
  <text x="640" y="350" text-anchor="middle" class="label">Qual comando foi acionado?</text>

  <rect x="80" y="470" width="250" height="70" class="box"/>
  <text x="205" y="502" text-anchor="middle" class="label">prepare-db</text>
  <text x="205" y="525" text-anchor="middle" class="small">trata e anonimiza o banco</text>

  <rect x="380" y="470" width="250" height="70" class="box"/>
  <text x="505" y="502" text-anchor="middle" class="label">extract</text>
  <text x="505" y="525" text-anchor="middle" class="small">gera CSVs canônicos</text>

  <rect x="690" y="470" width="250" height="70" class="box"/>
  <text x="815" y="502" text-anchor="middle" class="label">workflow</text>
  <text x="815" y="525" text-anchor="middle" class="small">fluxo principal do TCC</text>

  <rect x="990" y="470" width="210" height="70" class="box"/>
  <text x="1095" y="502" text-anchor="middle" class="label">outros comandos</text>
  <text x="1095" y="525" text-anchor="middle" class="small">reports, compare-history, clean</text>

  <rect x="665" y="600" width="300" height="70" class="data"/>
  <text x="815" y="632" text-anchor="middle" class="label">Ler CSVs em artifacts/database/csv</text>
  <text x="815" y="655" text-anchor="middle" class="small">notas, faltas, pagamentos e professores</text>

  <rect x="665" y="710" width="300" height="70" class="data"/>
  <text x="815" y="742" text-anchor="middle" class="label">Construir dataset temporal</text>
  <text x="815" y="765" text-anchor="middle" class="small">histórico, deltas, faltas, financeiro</text>

  <rect x="470" y="830" width="260" height="80" class="box"/>
  <text x="600" y="862" text-anchor="middle" class="label">Modo previsao_nota</text>
  <text x="600" y="885" text-anchor="middle" class="small">regressão da próxima nota</text>

  <rect x="760" y="830" width="260" height="80" class="box"/>
  <text x="890" y="862" text-anchor="middle" class="label">Modo alerta_risco</text>
  <text x="890" y="885" text-anchor="middle" class="small">classificação de risco</text>

  <rect x="470" y="960" width="260" height="78" class="result"/>
  <text x="600" y="992" text-anchor="middle" class="label">artifacts/pipeline/previsao_nota</text>
  <text x="600" y="1015" text-anchor="middle" class="small">dataset, predictions, métricas</text>

  <rect x="760" y="960" width="260" height="78" class="result"/>
  <text x="890" y="992" text-anchor="middle" class="label">artifacts/pipeline/alerta_risco</text>
  <text x="890" y="1015" text-anchor="middle" class="small">dataset, predictions, métricas</text>

  <rect x="1040" y="830" width="180" height="208" class="result"/>
  <text x="1130" y="875" text-anchor="middle" class="label">artifacts/reports</text>
  <text x="1130" y="910" text-anchor="middle" class="small">professor</text>
  <text x="1130" y="935" text-anchor="middle" class="small">coordenação</text>
  <text x="1130" y="960" text-anchor="middle" class="small">secretaria</text>
  <text x="1130" y="985" text-anchor="middle" class="small">ranking executivo</text>
  <text x="1130" y="1010" text-anchor="middle" class="small">dashboard</text>

  <path d="M 640 130 L 640 170" class="arrow"/>
  <path d="M 640 242 L 640 285" class="arrow"/>
  <path d="M 520 390 L 205 470" class="arrow"/>
  <path d="M 590 405 L 505 470" class="arrow"/>
  <path d="M 690 405 L 815 470" class="arrow"/>
  <path d="M 760 390 L 1095 470" class="arrow"/>
  <path d="M 815 540 L 815 600" class="arrow"/>
  <path d="M 815 670 L 815 710" class="arrow"/>
  <path d="M 815 780 L 600 830" class="arrow"/>
  <path d="M 815 780 L 890 830" class="arrow"/>
  <path d="M 600 910 L 600 960" class="arrow"/>
  <path d="M 890 910 L 890 960" class="arrow"/>
  <path d="M 730 999 L 1040 934" class="arrow"/>
  <path d="M 1020 999 L 1040 979" class="arrow"/>
</svg>
